<?xml version="1.0" standalone="no"?>
<svg xmlns="http://www.w3.org/2000/svg" viewBox="0 0 1440 320">
  <path fill="#0099ff" fill-opacity="1" d="M0,32L9.6,26.7C19.2,21,38,11,58,10.7C76.8,11,96,21,115,69.3C134.4,117,154,203,173,240C192,277,211,267,230,234.7C249.6,203,269,149,288,112C307.2,75,326,53,346,64C364.8,75,384,117,403,165.3C422.4,213,442,267,461,282.7C480,299,499,277,518,256C537.6,235,557,213,576,213.3C595.2,213,614,235,634,240C652.8,245,672,235,691,229.3C710.4,224,730,224,749,234.7C768,245,787,267,806,277.3C825.6,288,845,288,864,245.3C883.2,203,902,117,922,117.3C940.8,117,960,203,979,250.7C998.4,299,1018,309,1037,298.7C1056,288,1075,256,1094,234.7C1113.6,213,1133,203,1152,165.3C1171.2,128,1190,64,1210,64C1228.8,64,1248,128,1267,176C1286.4,224,1306,256,1325,250.7C1344,245,1363,203,1382,186.7C1401.6,171,1421,181,1430,186.7L1440,192L1440,320L1430.4,320C1420.8,320,1402,320,1382,320C1363.2,320,1344,320,1325,320C1305.6,320,1286,320,1267,320C1248,320,1229,320,1210,320C1190.4,320,1171,320,1152,320C1132.8,320,1114,320,1094,320C1075.2,320,1056,320,1037,320C1017.6,320,998,320,979,320C960,320,941,320,922,320C902.4,320,883,320,864,320C844.8,320,826,320,806,320C787.2,320,768,320,749,320C729.6,320,710,320,691,320C672,320,653,320,634,320C614.4,320,595,320,576,320C556.8,320,538,320,518,320C499.2,320,480,320,461,320C441.6,320,422,320,403,320C384,320,365,320,346,320C326.4,320,307,320,288,320C268.8,320,250,320,230,320C211.2,320,192,320,173,320C153.6,320,134,320,115,320C96,320,77,320,58,320C38.4,320,19,320,10,320L0,320Z">
  </path>
</svg>